<svg xmlns="http://www.w3.org/2000/svg" version="1.1" xmlns:xlink="http://www.w3.org/1999/xlink" xmlns:svgjs="http://svgjs.dev/svgjs" viewBox="0 0 10.712320763259887 3.207113735998539"><g transform="matrix(1,0,0,1,3.1812239710370895,0.5462866903314787)"><g><path d=" M 0.10693359375 0.010986328125 L 0.296630859375 0.010986328125 L 0.296630859375 0.557373046875 L 0.302490234375 0.557373046875 L 0.519287109375 0.010986328125 L 0.708251953125 0.010986328125 L 0.466552734375 0.59765625 L 0.7353515625 1.261962890625 L 0.532470703125 1.261962890625 L 0.302490234375 0.66650390625 L 0.296630859375 0.66650390625 L 0.296630859375 1.261962890625 L 0.10693359375 1.261962890625 L 0.10693359375 0.010986328125 Z M 0.850341796875 0.010986328125 L 1.0400390625 0.010986328125 L 1.0400390625 1.261962890625 L 0.850341796875 1.261962890625 L 0.850341796875 0.010986328125 Z M 1.26123046875 0.010986328125 L 1.458251953125 0.010986328125 Q 1.5029296875 0.010986328125 1.5509033203125 0.0135498046875 Q 1.598876953125 0.01611328125 1.6446533203125 0.029296875 Q 1.6904296875 0.04248046875 1.7310791015625 0.0699462890625 Q 1.771728515625 0.097412109375 1.802490234375 0.1468505859375 Q 1.833251953125 0.1962890625 1.8511962890625 0.2713623046875 Q 1.869140625 0.346435546875 1.869140625 0.454833984375 L 1.869140625 0.818115234375 Q 1.869140625 0.926513671875 1.8511962890625 1.001953125 Q 1.833251953125 1.077392578125 1.802490234375 1.12646484375 Q 1.771728515625 1.175537109375 1.7310791015625 1.2030029296875 Q 1.6904296875 1.23046875 1.6446533203125 1.24365234375 Q 1.598876953125 1.2568359375 1.5509033203125 1.2593994140625 Q 1.5029296875 1.261962890625 1.458251953125 1.261962890625 L 1.26123046875 1.261962890625 L 1.26123046875 0.010986328125 Z M 1.499267578125 1.12939453125 Q 1.550537109375 1.12939453125 1.5838623046875 1.1162109375 Q 1.6171875 1.10302734375 1.6365966796875 1.0697021484375 Q 1.656005859375 1.036376953125 1.663330078125 0.9788818359375 Q 1.670654296875 0.92138671875 1.670654296875 0.83349609375 L 1.670654296875 0.4453125 Q 1.670654296875 0.357421875 1.663330078125 0.2999267578125 Q 1.656005859375 0.242431640625 1.6365966796875 0.2091064453125 Q 1.6171875 0.17578125 1.5838623046875 0.16259765625 Q 1.550537109375 0.1494140625 1.499267578125 0.1494140625 L 1.450927734375 0.1494140625 L 1.450927734375 1.12939453125 L 1.499267578125 1.12939453125 Z M 1.997314453125 1.008544921875 Q 1.997314453125 0.96826171875 2.0020751953125 0.9342041015625 Q 2.0068359375 0.900146484375 2.016357421875 0.860595703125 L 2.16357421875 0.860595703125 L 2.16357421875 0.92138671875 Q 2.16357421875 0.971923828125 2.1697998046875 1.0107421875 Q 2.176025390625 1.049560546875 2.1903076171875 1.0762939453125 Q 2.20458984375 1.10302734375 2.2283935546875 1.1165771484375 Q 2.252197265625 1.130126953125 2.28662109375 1.130126953125 Q 2.3408203125 1.130126953125 2.369384765625 1.1004638671875 Q 2.39794921875 1.07080078125 2.39794921875 1.013671875 Q 2.39794921875 0.984375 2.3939208984375 0.9598388671875 Q 2.389892578125 0.935302734375 2.3800048828125 0.9111328125 Q 2.3701171875 0.886962890625 2.353271484375 0.8602294921875 Q 2.33642578125 0.83349609375 2.31005859375 0.800537109375 L 2.1123046875 0.5654296875 Q 2.0595703125 0.498046875 2.031005859375 0.4295654296875 Q 2.00244140625 0.361083984375 2.00244140625 0.283447265625 Q 2.00244140625 0.22119140625 2.0218505859375 0.169189453125 Q 2.041259765625 0.1171875 2.077880859375 0.0794677734375 Q 2.114501953125 0.041748046875 2.1683349609375 0.0208740234375 Q 2.22216796875 0 2.290283203125 0 Q 2.373046875 0 2.4283447265625 0.0234375 Q 2.483642578125 0.046875 2.5166015625 0.0849609375 Q 2.549560546875 0.123046875 2.5631103515625 0.1702880859375 Q 2.57666015625 0.217529296875 2.57666015625 0.26513671875 Q 2.57666015625 0.305419921875 2.5704345703125 0.3394775390625 Q 2.564208984375 0.37353515625 2.55615234375 0.41455078125 L 2.40966796875 0.41455078125 L 2.40966796875 0.355224609375 Q 2.40966796875 0.255615234375 2.381103515625 0.2025146484375 Q 2.3525390625 0.1494140625 2.2880859375 0.1494140625 Q 2.234619140625 0.1494140625 2.208251953125 0.1790771484375 Q 2.181884765625 0.208740234375 2.181884765625 0.258544921875 Q 2.181884765625 0.284912109375 2.1859130859375 0.30615234375 Q 2.18994140625 0.327392578125 2.1976318359375 0.3453369140625 Q 2.205322265625 0.36328125 2.21630859375 0.380126953125 Q 2.227294921875 0.39697265625 2.2412109375 0.415283203125 L 2.461669921875 0.681884765625 Q 2.521728515625 0.76025390625 2.553955078125 0.8323974609375 Q 2.586181640625 0.904541015625 2.586181640625 0.985107421875 Q 2.586181640625 1.0517578125 2.5653076171875 1.105224609375 Q 2.54443359375 1.15869140625 2.505615234375 1.196044921875 Q 2.466796875 1.2333984375 2.411865234375 1.2535400390625 Q 2.35693359375 1.273681640625 2.2880859375 1.273681640625 Q 2.203125 1.273681640625 2.1470947265625 1.2509765625 Q 2.091064453125 1.228271484375 2.0577392578125 1.19091796875 Q 2.0244140625 1.153564453125 2.0108642578125 1.10595703125 Q 1.997314453125 1.058349609375 1.997314453125 1.008544921875 Z M 3.076904296875 0.010986328125 L 3.26806640625 0.010986328125 L 3.26806640625 0.927978515625 Q 3.26806640625 0.986572265625 3.27392578125 1.025390625 Q 3.27978515625 1.064208984375 3.2926025390625 1.0872802734375 Q 3.305419921875 1.1103515625 3.3255615234375 1.1202392578125 Q 3.345703125 1.130126953125 3.37353515625 1.130126953125 Q 3.4013671875 1.130126953125 3.4222412109375 1.1202392578125 Q 3.443115234375 1.1103515625 3.4566650390625 1.0872802734375 Q 3.47021484375 1.064208984375 3.4771728515625 1.025390625 Q 3.484130859375 0.986572265625 3.484130859375 0.927978515625 L 3.484130859375 0.010986328125 L 3.673095703125 0.010986328125 L 3.673095703125 0.87744140625 Q 3.673095703125 0.968994140625 3.658447265625 1.0341796875 Q 3.643798828125 1.099365234375 3.61962890625 1.143310546875 Q 3.595458984375 1.187255859375 3.5643310546875 1.212890625 Q 3.533203125 1.238525390625 3.4998779296875 1.2520751953125 Q 3.466552734375 1.265625 3.43359375 1.269287109375 Q 3.400634765625 1.27294921875 3.37353515625 1.27294921875 Q 3.346435546875 1.27294921875 3.3138427734375 1.269287109375 Q 3.28125 1.265625 3.248291015625 1.2520751953125 Q 3.21533203125 1.238525390625 3.1845703125 1.212890625 Q 3.15380859375 1.187255859375 3.129638671875 1.143310546875 Q 3.10546875 1.099365234375 3.0911865234375 1.0345458984375 Q 3.076904296875 0.9697265625 3.076904296875 0.87744140625 L 3.076904296875 0.010986328125 Z M 3.889892578125 0.010986328125 L 4.043701171875 0.010986328125 L 4.346923828125 0.84814453125 L 4.351318359375 0.84814453125 Q 4.34912109375 0.81884765625 4.345458984375 0.782958984375 Q 4.341796875 0.7470703125 4.3388671875 0.7012939453125 Q 4.3359375 0.655517578125 4.333740234375 0.59765625 Q 4.33154296875 0.539794921875 4.33154296875 0.46728515625 L 4.33154296875 0.010986328125 L 4.50146484375 0.010986328125 L 4.50146484375 1.261962890625 L 4.34619140625 1.261962890625 L 4.04443359375 0.44677734375 L 4.03857421875 0.44677734375 Q 4.040771484375 0.479736328125 4.04443359375 0.5181884765625 Q 4.048095703125 0.556640625 4.051025390625 0.608642578125 Q 4.053955078125 0.66064453125 4.05615234375 0.7298583984375 Q 4.058349609375 0.799072265625 4.058349609375 0.894287109375 L 4.058349609375 1.261962890625 L 3.889892578125 1.261962890625 L 3.889892578125 0.010986328125 Z M 4.72265625 0.010986328125 L 4.912353515625 0.010986328125 L 4.912353515625 1.261962890625 L 4.72265625 1.261962890625 L 4.72265625 0.010986328125 Z M 5.249267578125 0.160400390625 L 5.0478515625 0.160400390625 L 5.0478515625 0.010986328125 L 5.6396484375 0.010986328125 L 5.6396484375 0.160400390625 L 5.43896484375 0.160400390625 L 5.43896484375 1.261962890625 L 5.249267578125 1.261962890625 L 5.249267578125 0.160400390625 Z M 5.775146484375 0.010986328125 L 6.23876953125 0.010986328125 L 6.23876953125 0.160400390625 L 5.96484375 0.160400390625 L 5.96484375 0.53466796875 L 6.176513671875 0.53466796875 L 6.176513671875 0.68408203125 L 5.96484375 0.68408203125 L 5.96484375 1.112548828125 L 6.24609375 1.112548828125 L 6.24609375 1.261962890625 L 5.775146484375 1.261962890625 L 5.775146484375 0.010986328125 Z M 6.390380859375 0.010986328125 L 6.58740234375 0.010986328125 Q 6.632080078125 0.010986328125 6.6800537109375 0.0135498046875 Q 6.72802734375 0.01611328125 6.7738037109375 0.029296875 Q 6.819580078125 0.04248046875 6.8602294921875 0.0699462890625 Q 6.90087890625 0.097412109375 6.931640625 0.1468505859375 Q 6.96240234375 0.1962890625 6.9803466796875 0.2713623046875 Q 6.998291015625 0.346435546875 6.998291015625 0.454833984375 L 6.998291015625 0.818115234375 Q 6.998291015625 0.926513671875 6.9803466796875 1.001953125 Q 6.96240234375 1.077392578125 6.931640625 1.12646484375 Q 6.90087890625 1.175537109375 6.8602294921875 1.2030029296875 Q 6.819580078125 1.23046875 6.7738037109375 1.24365234375 Q 6.72802734375 1.2568359375 6.6800537109375 1.2593994140625 Q 6.632080078125 1.261962890625 6.58740234375 1.261962890625 L 6.390380859375 1.261962890625 L 6.390380859375 0.010986328125 Z M 6.62841796875 1.12939453125 Q 6.6796875 1.12939453125 6.7130126953125 1.1162109375 Q 6.746337890625 1.10302734375 6.7657470703125 1.0697021484375 Q 6.78515625 1.036376953125 6.79248046875 0.9788818359375 Q 6.7998046875 0.92138671875 6.7998046875 0.83349609375 L 6.7998046875 0.4453125 Q 6.7998046875 0.357421875 6.79248046875 0.2999267578125 Q 6.78515625 0.242431640625 6.7657470703125 0.2091064453125 Q 6.746337890625 0.17578125 6.7130126953125 0.16259765625 Q 6.6796875 0.1494140625 6.62841796875 0.1494140625 L 6.580078125 0.1494140625 L 6.580078125 1.12939453125 L 6.62841796875 1.12939453125 Z" fill="#c02a5a" fill-rule="nonzero"></path></g><g><path d=" M 0.10257751464843749 1.652677617853338 Q 0.10240156693892044 1.6718559181906958 0.10240156693892044 1.8069837590997868 Q 0.10240156693892044 1.9421116000088776 0.10662431196732954 2.0913152576793324 Q 0.10697620738636363 2.1025759110884232 0.10011424671519885 2.1085581332120027 Q 0.09325228604403409 2.114540355335582 0.08568653453480113 2.114540355335582 Q 0.07812078302556817 2.114540355335582 0.07231450861150568 2.1092619240500707 Q 0.06650823419744317 2.1039834927645593 0.06721202503551135 2.0856849309747867 Q 0.06791581587357953 2.067386369185014 0.06861960671164771 2.0350119906338775 Q 0.0693233975497159 2.0026376120827414 0.07002718838778409 1.966040488503196 Q 0.07143477006392045 1.8935500321821732 0.07143477006392045 1.830736699884588 Q 0.07143477006392045 1.7679233675870027 0.0712588223544034 1.7329097733931107 Q 0.07108287464488636 1.6978961791992186 0.07037908380681818 1.668336964000355 Q 0.0693233975497159 1.602884416060014 0.06650823419744317 1.56382402454723 Q 0.0654525479403409 1.552563371138139 0.07055503151633521 1.5471089921431105 Q 0.07565751509232954 1.5416546131480824 0.08375110973011363 1.5416546131480824 Q 0.09184470436789771 1.5416546131480824 0.09888261274857953 1.5471089921431105 Q 0.10592052112926136 1.552563371138139 0.10539267800071021 1.5655835016424005 Q 0.10486483487215907 1.5786036321466619 0.10433699174360794 1.591271867231889 Q 0.1038091486150568 1.6039401023171163 0.10328130548650567 1.6187197099165482 Q 0.10275346235795453 1.63349931751598 0.10257751464843749 1.652677617853338 Z M 0.49969149502840904 1.5631202337091619 Q 0.49758012251420447 1.738364152388139 0.49758012251420447 1.8110305564186788 Q 0.49758012251420447 1.8836969604492186 0.49775607022372154 1.9176548683860084 Q 0.4979320179332386 1.9516127763227982 0.4982839133522727 1.982227677778764 Q 0.49898770419034083 2.046976434881037 0.4998674427379261 2.070729375665838 Q 0.5007471812855113 2.0944823164506388 0.49863580877130675 2.099056956898082 Q 0.49652443625710224 2.1036315973455255 0.4930054820667613 2.1067986561168324 Q 0.4785777698863636 2.1198187866210936 0.4623905806107954 2.1092619240500707 Q 0.45605646306818176 2.1050391790216616 0.45324129971590904 2.0965936889648433 Q 0.42227450284090906 2.0058046708540482 0.3786394708806818 1.8993563065962356 Q 0.3350044389204545 1.792907942338423 0.31776156338778405 1.7489210149591616 Q 0.28644287109375 1.6690407548384232 0.26321777343749997 1.60253252064098 L 0.2677924138849431 2.093426630193537 Q 0.2677924138849431 2.1043353881835936 0.2621620871803977 2.109613819469105 Q 0.25653176047585224 2.1148922507546164 0.24931790438565338 2.1148922507546164 Q 0.2421040482954545 2.1148922507546164 0.23594587846235793 2.1090859763405536 Q 0.22978770862926134 2.1032797019264913 0.23013960404829542 2.091667153098366 Q 0.23365855823863635 1.9948959128639911 0.23365855823863635 1.8710287253639912 L 0.23365855823863635 1.6623547418767755 Q 0.23365855823863635 1.6078109519264911 0.23295476740056817 1.5683986649946733 Q 0.23295476740056817 1.5553785344904116 0.24087241432883522 1.548516573819247 Q 0.24879006125710224 1.5416546131480824 0.25758744673295453 1.5416546131480824 Q 0.2772935901988636 1.5416546131480824 0.2836277077414773 1.560305070356889 Q 0.28996182528409087 1.578955527565696 0.3015743741122159 1.610450167569247 Q 0.3131869229403409 1.641944807572798 0.32761463512073863 1.6804773559570312 Q 0.34204234730113636 1.719009904341264 0.3585814319957386 1.7621170931729402 Q 0.37512051669034085 1.8052242820046163 0.39165960138494316 1.8479795754172583 Q 0.4081986860795454 1.8907348688299004 0.4236820845170454 1.9308509465997867 Q 0.4391654829545454 1.970967024369673 0.4518337180397727 2.0036932983398437 Q 0.4645019531249999 2.036419572310014 0.4732993386008522 2.059644669966264 Q 0.4736512340198863 2.060700356223366 0.4740031294389204 2.0614041470614346 Q 0.4711879660866477 1.9924326449307526 0.4694284889914772 1.9111448031338776 Q 0.4676690118963068 1.8122621903852982 0.4664373779296874 1.7629968317205253 Q 0.46520574396306813 1.7137314730557527 0.46397410999644884 1.6632344804243606 Q 0.4627424760298295 1.6127374877929685 0.46098299893465905 1.5631202337091619 Q 0.46098299893465905 1.551859580300071 0.46714116876775563 1.5464052013050424 Q 0.4732993386008522 1.540950822310014 0.48068914240056815 1.540950822310014 Q 0.488078946200284 1.540950822310014 0.49388522061434653 1.5464052013050424 Q 0.49969149502840904 1.551859580300071 0.49969149502840904 1.5631202337091619 Z M 0.6703607732599431 1.5455254627574573 Q 0.6802138449928977 1.5455254627574573 0.7970431241122158 1.5427102994051844 Q 0.8132303133877841 1.5427102994051844 0.8192125355113635 1.5550266390713778 Q 0.8206201171874999 1.5585455932617185 0.8206201171874999 1.5631202337091619 Q 0.8206201171874999 1.5676948741566048 0.8153416859019886 1.5724454623135653 Q 0.8100632546164772 1.5771960504705254 0.7956355424360795 1.5768441550514913 Q 0.7812078302556817 1.5764922596324573 0.7676598566228693 1.575788468794389 Q 0.7541118829900568 1.5750846779563208 0.7424993341619317 1.5747327825372868 Q 0.7217375044389204 1.5740289916992185 0.7069578968394886 1.5743808871182527 Q 0.7041427334872159 1.6553168334960935 0.7041427334872159 1.749976701216264 Q 0.7041427334872159 1.8513225818980823 0.7043186811967329 1.888799444025213 Q 0.7044946289062499 1.9262763061523436 0.7051984197443182 1.9604101617986505 Q 0.7062541060014205 2.047680225719105 0.7073097922585226 2.089907676003196 Q 0.7076616876775568 2.1018721202503547 0.7018554132634942 2.1076783946644175 Q 0.6960491388494318 2.11348466907848 0.689187178178267 2.11348466907848 Q 0.6823252175071022 2.11348466907848 0.6758151522549716 2.1080302900834513 Q 0.6693050870028409 2.1025759110884232 0.6693050870028409 2.091667153098366 L 0.6689531915838067 2.0455688532049003 L 0.6724721457741477 1.7095087280273435 Q 0.6724721457741477 1.6155526511452414 0.670008877840909 1.5743808871182527 Q 0.6513584206321023 1.5740289916992185 0.6256700550426136 1.575788468794389 Q 0.5954070490056818 1.5778998413085936 0.5818590753728693 1.5787795798561788 Q 0.5683111017400568 1.5796593184037642 0.5626807750355113 1.5743808871182527 Q 0.5570504483309658 1.5691024558327413 0.5570504483309658 1.5622404951615767 Q 0.5570504483309658 1.5553785344904116 0.5626807750355113 1.5486925215287641 Q 0.5683111017400568 1.5420065085671162 0.580803389115767 1.5425343516956675 Q 0.5932956764914772 1.5430621948242185 0.6024449573863636 1.5434140902432527 Q 0.6115942382812499 1.5437659856622867 0.6184561989524148 1.5441178810813208 Q 0.6253181596235795 1.544469776500355 0.6305965909090909 1.544821671919389 Q 0.6358750221946022 1.545173567338423 0.6413294011896307 1.5453495150479402 Q 0.6467837801846591 1.5455254627574573 0.6538216885653408 1.5455254627574573 L 0.6703607732599431 1.5455254627574573 Z M 0.9149280894886364 1.9213497702858662 L 0.9156318803267045 2.0462726440429684 Q 0.9156318803267045 2.063163624156605 0.9156318803267045 2.075128068403764 Q 0.9159837757457386 2.0804064996892753 0.9159837757457386 2.08427734929865 Q 1.0046614213423295 2.08427734929865 1.033868741122159 2.0814621859463776 Q 1.064131747159091 2.0782951271750707 1.0690582830255682 2.0797027088512072 Q 1.0739848188920456 2.0811102905273433 1.0775037730823864 2.08427734929865 Q 1.0845416814630682 2.090611466841264 1.0845416814630682 2.098177218350497 Q 1.0845416814630682 2.10574296985973 1.0778556685014204 2.111197348854758 Q 1.0711696555397727 2.1166517278497867 1.0592052112926136 2.1159479370117187 Q 1.0014943625710226 2.1113732965642753 0.9550441672585227 2.114364407626065 Q 0.9085939719460228 2.1173555186878548 0.9029636452414773 2.11823525723544 Q 0.8973333185369319 2.1191149957830255 0.8929346257990057 2.11823525723544 Q 0.8885359330610796 2.1173555186878548 0.8850169788707386 2.114540355335582 Q 0.8769233842329546 2.1085581332120027 0.8776271750710227 2.0969455843838776 Q 0.8829056063565341 1.9952478082830254 0.8829056063565341 1.8719084639115766 Q 0.8829056063565341 1.7485691195401276 0.8830815540660512 1.7167225841175424 Q 0.8832575017755682 1.6848760486949572 0.8832575017755682 1.6584838922674003 Q 0.8825537109375 1.6018287298029117 0.8807942338423296 1.5784276844371448 Q 0.8790347567471591 1.5550266390713778 0.8816739723899147 1.5504519986239345 Q 0.8843131880326704 1.5458773581764913 0.8881840376420455 1.5437659856622867 Q 0.8934624689275569 1.5413027177290481 0.9015560635653409 1.5427102994051844 Q 0.9163356711647728 1.545173567338423 0.940616455078125 1.545173567338423 Q 0.9874185458096592 1.545173567338423 1.0044854736328124 1.5432381425337356 Q 1.0215524014559658 1.5413027177290481 1.0264789373224432 1.5428862471147016 Q 1.0314054731889204 1.544469776500355 1.0345725319602272 1.5472849398526276 Q 1.041610440340909 1.5529152665571733 1.041610440340909 1.5610088611949573 Q 1.041610440340909 1.5691024558327413 1.0352763227982955 1.5743808871182527 Q 1.0289422052556818 1.5796593184037642 1.018033447265625 1.5791314752752128 Q 1.007124689275568 1.5786036321466619 0.994808349609375 1.5777238935990765 Q 0.9824920099431818 1.5768441550514913 0.9684161931818182 1.576140364213423 Q 0.9388569779829545 1.5750846779563208 0.9170394620028409 1.5768441550514913 Q 0.9170394620028409 1.6074590565074574 0.9166875665838068 1.637722062544389 Q 0.9163356711647728 1.6736153952858663 0.9159837757457386 1.7105644142844458 Q 0.9149280894886364 1.8097989224520594 0.9149280894886364 1.8569529086026275 Q 0.9589150168678977 1.8569529086026275 0.9796768465909091 1.8548415360884232 Q 1.002198153409091 1.8523782681551846 1.0080044278231535 1.8569529086026275 Q 1.0138107022372158 1.861527549050071 1.0138107022372158 1.869269248268821 Q 1.0138107022372158 1.8886234963156958 0.9775654740767046 1.8879197054776276 Q 0.9701756702769886 1.8875678100585935 0.9641934481534091 1.8875678100585935 L 0.9356899192116477 1.8872159146395595 L 0.9149280894886364 1.8872159146395595 L 0.9149280894886364 1.9213497702858662 Z M 1.188350830078125 1.951260880903764 Q 1.1911659934303975 2.0311411410245026 1.192925470525568 2.089907676003196 Q 1.193277365944602 2.1018721202503547 1.1869432484019886 2.1076783946644175 Q 1.180609130859375 2.11348466907848 1.173395274769176 2.11348466907848 Q 1.1661814186789772 2.11348466907848 1.1607270396839486 2.1080302900834513 Q 1.1552726606889203 2.1025759110884232 1.1552726606889203 2.091667153098366 L 1.1552726606889203 1.82704179798473 Q 1.1552726606889203 1.6898025845614346 1.1485866477272726 1.5807150046608665 Q 1.1475309614701703 1.5652316062233664 1.1570321377840909 1.5592493840997868 Q 1.1609029873934658 1.5567861161665482 1.165125732421875 1.556258273037997 Q 1.169348477450284 1.5557304299094459 1.1837761896306818 1.5515076848810367 Q 1.220021417791193 1.5413027177290481 1.2557388028231533 1.5413027177290481 Q 1.2914561878551134 1.5413027177290481 1.3148572332208806 1.549220364657315 Q 1.3382582785866477 1.5571380115855822 1.3547973632812498 1.5733252008611505 Q 1.389986905184659 1.6078109519264911 1.389986905184659 1.6750229769620026 Q 1.389986905184659 1.761589250044389 1.3217191938920454 1.8421733010031958 Q 1.3108104359019885 1.8551934315074572 1.2984940962357954 1.8678616665926844 Q 1.3329798473011363 1.9734302923029117 1.3794300426136363 2.083221663041548 Q 1.3878755326704544 2.102224015669389 1.370984552556818 2.111021401145241 Q 1.366761807528409 2.1131327736594456 1.3611314808238635 2.1131327736594456 Q 1.3484632457386363 2.1131327736594456 1.3431848144531249 2.098705061479048 Q 1.331924161044034 2.0659787875088775 1.3227748801491477 2.0358917291814627 Q 1.3136255992542611 2.0058046708540482 1.3048282137784089 1.9773011419122868 Q 1.2893448153409088 1.9259244107333093 1.2756208939985794 1.889327287153764 Q 1.2369123979048293 1.9234611428000707 1.188350830078125 1.951260880903764 Z M 1.1872951438210226 1.9178308160955253 Q 1.242894620028409 1.885456437544389 1.2914561878551134 1.8298569613370026 Q 1.3565568403764203 1.754199446244673 1.3565568403764203 1.6781900357333095 Q 1.3565568403764203 1.599365461869673 1.301309259588068 1.5764922596324573 Q 1.2710462535511362 1.56382402454723 1.2242441628196021 1.5729733054421162 Q 1.2020747514204544 1.5771960504705254 1.1879989346590907 1.584233958851207 Q 1.1834242942116475 1.6901544799804686 1.1834242942116475 1.761941145463423 Q 1.1834242942116475 1.8383024513938209 1.1836002419211646 1.8441087258078834 Q 1.1837761896306818 1.8499150002219458 1.1839521373401987 1.854665588378906 Q 1.1841280850497158 1.8594161765358663 1.1844799804687498 1.8645186601118606 Q 1.184831875887784 1.869621143687855 1.1853597190163352 1.8791223200017755 Q 1.1858875621448863 1.8886234963156958 1.1865913529829544 1.9037549993341618 Q 1.1869432484019886 1.9100891168767753 1.1872951438210226 1.9178308160955253 Z M 1.7439936967329543 1.5631202337091619 Q 1.7418823242187498 1.738364152388139 1.7418823242187498 1.8110305564186788 Q 1.7418823242187498 1.8836969604492186 1.742058271928267 1.9176548683860084 Q 1.742234219637784 1.9516127763227982 1.742586115056818 1.982227677778764 Q 1.743289905894886 2.046976434881037 1.7441696444424715 2.070729375665838 Q 1.7450493829900566 2.0944823164506388 1.742938010475852 2.099056956898082 Q 1.7408266379616477 2.1036315973455255 1.7373076837713066 2.1067986561168324 Q 1.7228799715909089 2.1198187866210936 1.7066927823153408 2.1092619240500707 Q 1.7003586647727271 2.1050391790216616 1.6975435014204545 2.0965936889648433 Q 1.6665767045454545 2.0058046708540482 1.622941672585227 1.8993563065962356 Q 1.5793066406249998 1.792907942338423 1.5620637650923295 1.7489210149591616 Q 1.5307450727982954 1.6690407548384232 1.5075199751420454 1.60253252064098 L 1.5120946155894885 2.093426630193537 Q 1.5120946155894885 2.1043353881835936 1.506464288884943 2.109613819469105 Q 1.5008339621803977 2.1148922507546164 1.4936201060901988 2.1148922507546164 Q 1.48640625 2.1148922507546164 1.4802480801669033 2.1090859763405536 Q 1.4740899103338068 2.1032797019264913 1.4744418057528408 2.091667153098366 Q 1.4779607599431817 1.9948959128639911 1.4779607599431817 1.8710287253639912 L 1.4779607599431817 1.6623547418767755 Q 1.4779607599431817 1.6078109519264911 1.4772569691051136 1.5683986649946733 Q 1.4772569691051136 1.5553785344904116 1.4851746160333805 1.548516573819247 Q 1.4930922629616477 1.5416546131480824 1.5018896484375 1.5416546131480824 Q 1.5215957919034089 1.5416546131480824 1.5279299094460226 1.560305070356889 Q 1.5342640269886363 1.578955527565696 1.5458765758167612 1.610450167569247 Q 1.5574891246448863 1.641944807572798 1.571916836825284 1.6804773559570312 Q 1.5863445490056818 1.719009904341264 1.602883633700284 1.7621170931729402 Q 1.6194227183948862 1.8052242820046163 1.6359618030894885 1.8479795754172583 Q 1.6525008877840908 1.8907348688299004 1.6679842862215908 1.9308509465997867 Q 1.6834676846590908 1.970967024369673 1.696135919744318 2.0036932983398437 Q 1.7088041548295454 2.036419572310014 1.7176015403053975 2.059644669966264 Q 1.7179534357244317 2.060700356223366 1.7183053311434657 2.0614041470614346 Q 1.7154901677911931 1.9924326449307526 1.7137306906960226 1.9111448031338776 Q 1.7119712136008522 1.8122621903852982 1.7107395796342328 1.7629968317205253 Q 1.7095079456676134 1.7137314730557527 1.7082763117009943 1.6632344804243606 Q 1.7070446777343748 1.6127374877929685 1.7052852006392043 1.5631202337091619 Q 1.7052852006392043 1.551859580300071 1.7114433704723009 1.5464052013050424 Q 1.7176015403053975 1.540950822310014 1.7249913441051135 1.540950822310014 Q 1.7323811479048294 1.540950822310014 1.7381874223188918 1.5464052013050424 Q 1.7439936967329543 1.551859580300071 1.7439936967329543 1.5631202337091619 Z M 1.963576438210227 1.5441178810813208 Q 1.9720219282670453 1.5441178810813208 1.979059836647727 1.5511557894620027 Q 1.986097745028409 1.5581936978426845 1.990144542347301 1.5805390569513493 Q 1.994191339666193 1.602884416060014 2.002460882013494 1.6444080755060368 Q 2.010730424360795 1.6859317349520595 2.0209353915127837 1.7330857211026276 Q 2.0311403586647727 1.780239707253196 2.0424010120738636 1.8303848044655537 Q 2.0536616654829545 1.8805299016779118 2.0649223188920454 1.9276838878284799 Q 2.09201826615767 2.0381790494051844 2.1071497691761363 2.089203885165128 Q 2.110668723366477 2.102224015669389 2.105214344371449 2.1099657148881388 Q 2.0997599653764203 2.117707414106889 2.0930739524147723 2.117707414106889 Q 2.086387939453125 2.117707414106889 2.0809335604580963 2.113836564497514 Q 2.075479181463068 2.1099657148881388 2.071256436434659 2.090963362260298 Q 2.06703369140625 2.071961009632457 2.0575325150923294 2.0293816639293323 Q 2.048031338778409 1.9868023182262071 2.037122580788352 1.9378888549804685 Q 2.036770685369318 1.935777482466264 2.0364187899502837 1.9340180053710936 Q 2.012489901455966 1.9329623191139913 1.9688548694957384 1.9329623191139913 Q 1.9174781383167612 1.9329623191139913 1.8903821910511363 1.9343699007901276 Q 1.890030295632102 1.9364812733043322 1.889678400213068 1.9385926458185367 Q 1.8682127796519885 2.0420498990145592 1.8580078125 2.098705061479048 Q 1.8544888583096588 2.1166517278497867 1.839357355291193 2.1166517278497867 Q 1.823522061434659 2.1166517278497867 1.820003107244318 2.1011683294122867 Q 1.8189474209872156 2.0965936889648433 1.8221144797585225 2.086740617231889 Q 1.8252815385298293 2.0768875454989346 1.831439708362926 2.052782709295099 Q 1.8375978781960225 2.028677873091264 1.8448117342862214 1.9975351285067469 Q 1.8520255903764202 1.96639238392223 1.8601191850142043 1.9294433649236504 Q 1.8682127796519885 1.892494345925071 1.8766582697088066 1.8534339544122869 Q 1.8851037597656248 1.8143735628995026 1.8935492498224429 1.7747853282581674 Q 1.9019947398792612 1.7351970936168322 1.9097364390980112 1.6982480746182527 Q 1.9174781383167612 1.6612990556196732 1.924340098987926 1.6289246770685368 Q 1.9312020596590906 1.5965502985174003 1.9354248046874998 1.5775479458895596 Q 1.9421108176491475 1.5441178810813208 1.963576438210227 1.5441178810813208 Z M 1.897068204012784 1.9016436268199572 Q 1.9238122558593749 1.9030512084960935 1.9692067649147726 1.9030512084960935 Q 2.00685957475142 1.9030512084960935 2.029380881569602 1.9019955222389913 Q 2.021991077769886 1.869973039106889 2.0146012739701704 1.8361910788796163 Q 2.0029887251420453 1.7837586614435368 1.9924318625710224 1.734493302778764 Q 1.9748370916193179 1.6539092518199572 1.9621688565340907 1.5930313443270596 Q 1.9540752618963066 1.63349931751598 1.9389437588778407 1.70317461048473 Q 1.9192376154119317 1.79607500110973 1.909032648259943 1.8446365689364344 Q 1.9030504261363634 1.873843888716264 1.897068204012784 1.9016436268199572 Z M 2.246500355113636 1.5455254627574573 Q 2.256353426846591 1.5455254627574573 2.3731827059659087 1.5427102994051844 Q 2.389369895241477 1.5427102994051844 2.3953521173650567 1.5550266390713778 Q 2.396759699041193 1.5585455932617185 2.396759699041193 1.5631202337091619 Q 2.396759699041193 1.5676948741566048 2.3914812677556814 1.5724454623135653 Q 2.3862028364701704 1.5771960504705254 2.3717751242897727 1.5768441550514913 Q 2.357347412109375 1.5764922596324573 2.3437994384765624 1.575788468794389 Q 2.33025146484375 1.5750846779563208 2.3186389160156247 1.5747327825372868 Q 2.2978770862926132 1.5740289916992185 2.2830974786931817 1.5743808871182527 Q 2.2802823153409086 1.6553168334960935 2.2802823153409086 1.749976701216264 Q 2.2802823153409086 1.8513225818980823 2.2804582630504258 1.888799444025213 Q 2.280634210759943 1.9262763061523436 2.281338001598011 1.9604101617986505 Q 2.282393687855113 2.047680225719105 2.2834493741122155 2.089907676003196 Q 2.2838012695312497 2.1018721202503547 2.2779949951171874 2.1076783946644175 Q 2.2721887207031246 2.11348466907848 2.26532676003196 2.11348466907848 Q 2.2584647993607954 2.11348466907848 2.2519547341086645 2.1080302900834513 Q 2.2454446688565337 2.1025759110884232 2.2454446688565337 2.091667153098366 L 2.2450927734375 2.0455688532049003 L 2.2486117276278406 1.7095087280273435 Q 2.2486117276278406 1.6155526511452414 2.246148459694602 1.5743808871182527 Q 2.2274980024857953 1.5740289916992185 2.2018096368963067 1.575788468794389 Q 2.1715466308593747 1.5778998413085936 2.157998657226562 1.5787795798561788 Q 2.1444506835937496 1.5796593184037642 2.1388203568892044 1.5743808871182527 Q 2.1331900301846587 1.5691024558327413 2.1331900301846587 1.5622404951615767 Q 2.1331900301846587 1.5553785344904116 2.1388203568892044 1.5486925215287641 Q 2.1444506835937496 1.5420065085671162 2.15694297096946 1.5425343516956675 Q 2.16943525834517 1.5430621948242185 2.1785845392400565 1.5434140902432527 Q 2.1877338201349428 1.5437659856622867 2.194595780806108 1.5441178810813208 Q 2.2014577414772725 1.544469776500355 2.206736172762784 1.544821671919389 Q 2.2120146040482953 1.545173567338423 2.2174689830433234 1.5453495150479402 Q 2.222923362038352 1.5455254627574573 2.2299612704190337 1.5455254627574573 L 2.246500355113636 1.5455254627574573 Z M 2.5028561678799712 1.652677617853338 Q 2.502680220170454 1.6718559181906958 2.502680220170454 1.8069837590997868 Q 2.502680220170454 1.9421116000088776 2.5069029651988632 2.0913152576793324 Q 2.5072548606178975 2.1025759110884232 2.500392899946733 2.1085581332120027 Q 2.493530939275568 2.114540355335582 2.485965187766335 2.114540355335582 Q 2.478399436257102 2.114540355335582 2.4725931618430397 2.1092619240500707 Q 2.466786887428977 2.1039834927645593 2.4674906782670454 2.0856849309747867 Q 2.4681944691051134 2.067386369185014 2.4688982599431815 2.0350119906338775 Q 2.46960205078125 2.0026376120827414 2.470305841619318 1.966040488503196 Q 2.4717134232954545 1.8935500321821732 2.4717134232954545 1.830736699884588 Q 2.4717134232954545 1.7679233675870027 2.4715374755859374 1.7329097733931107 Q 2.4713615278764203 1.6978961791992186 2.4706577370383522 1.668336964000355 Q 2.46960205078125 1.602884416060014 2.466786887428977 1.56382402454723 Q 2.4657312011718746 1.552563371138139 2.470833684747869 1.5471089921431105 Q 2.475936168323863 1.5416546131480824 2.4840297629616477 1.5416546131480824 Q 2.4921233575994317 1.5416546131480824 2.4991612659801135 1.5471089921431105 Q 2.506199174360795 1.552563371138139 2.5056713312322443 1.5655835016424005 Q 2.505143488103693 1.5786036321466619 2.504615644975142 1.591271867231889 Q 2.5040878018465906 1.6039401023171163 2.5035599587180397 1.6187197099165482 Q 2.5030321155894883 1.63349931751598 2.5028561678799712 1.652677617853338 Z M 2.7511183860085224 2.122633949973366 Q 2.6775722434303972 2.122633949973366 2.6429105446555394 2.0466245394620026 Q 2.6082488458806816 1.970615128950639 2.6082488458806816 1.8221152621182526 Q 2.6082488458806816 1.7049340875799004 2.6480130282315337 1.6254057228781957 Q 2.667719171697443 1.586697226784446 2.69587080522017 1.5636480768377128 Q 2.7240224387428973 1.54059892689098 2.7607955100319597 1.54059892689098 Q 2.7975685813210225 1.54059892689098 2.8250164240056814 1.559777227228338 Q 2.8524642666903404 1.578955527565696 2.870410933061079 1.6152007557262071 Q 2.9056004749644884 1.6862836303710935 2.9063042658025564 1.8221152621182526 Q 2.9070080566406244 1.9649848022460936 2.865484397194602 2.044513166947798 Q 2.824664528586647 2.122633949973366 2.7511183860085224 2.122633949973366 Z M 2.7982723721590905 1.5819466386274856 Q 2.7817332874644882 1.57156572376598 2.761675248579545 1.57156572376598 Q 2.741617209694602 1.57156572376598 2.725430020419034 1.5819466386274856 Q 2.7092428311434653 1.5923275534889914 2.696046752929687 1.6106261152787642 Q 2.6828506747159087 1.6289246770685368 2.672821655273437 1.6537333041104403 Q 2.6627926358309657 1.6785419311523435 2.6557547274502835 1.707045460094105 Q 2.6420308061079543 1.765460099653764 2.6420308061079543 1.823698791503906 Q 2.6420308061079543 1.881937483354048 2.64642949884588 1.9213497702858662 Q 2.6508281915838063 1.9607620572176845 2.6585698908025566 1.9894415338689628 Q 2.6663115900213064 2.0181210105202414 2.6770444003018463 2.037299310857599 Q 2.687777210582386 2.056477611194957 2.700093550248579 2.068090160023082 Q 2.722966752485795 2.0888519897460935 2.754637340198863 2.0888519897460935 Q 2.8482415216619312 2.0888519897460935 2.8682995605468746 1.916775129838423 Q 2.8728742009943176 1.877362842906605 2.8728742009943176 1.8365429742986503 Q 2.8728742009943176 1.795723105690696 2.870410933061079 1.76510820423473 Q 2.8679476651278404 1.734493302778764 2.8624932861328123 1.7061657215465198 Q 2.8570389071377837 1.6778381403142755 2.8484174693714484 1.653205460981889 Q 2.8397960316051134 1.6285727816495026 2.827303744229403 1.610450167569247 Q 2.814811456853693 1.5923275534889914 2.7982723721590905 1.5819466386274856 Z M 3.2648856977982947 1.5631202337091619 Q 3.26277432528409 1.738364152388139 3.26277432528409 1.8110305564186788 Q 3.26277432528409 1.8836969604492186 3.2629502729936073 1.9176548683860084 Q 3.2631262207031244 1.9516127763227982 3.263478116122158 1.982227677778764 Q 3.2641819069602267 2.046976434881037 3.265061645507812 2.070729375665838 Q 3.265941384055397 2.0944823164506388 3.2638300115411925 2.099056956898082 Q 3.261718639026988 2.1036315973455255 3.2581996848366472 2.1067986561168324 Q 3.2437719726562495 2.1198187866210936 3.227584783380681 2.1092619240500707 Q 3.2212506658380677 2.1050391790216616 3.2184355024857947 2.0965936889648433 Q 3.1874687056107947 2.0058046708540482 3.1438336736505677 1.8993563065962356 Q 3.10019864169034 1.792907942338423 3.08295576615767 1.7489210149591616 Q 3.0516370738636356 1.6690407548384232 3.028411976207386 1.60253252064098 L 3.0329866166548287 2.093426630193537 Q 3.0329866166548287 2.1043353881835936 3.0273562899502835 2.109613819469105 Q 3.021725963245738 2.1148922507546164 3.014512107155539 2.1148922507546164 Q 3.00729825106534 2.1148922507546164 3.0011400812322435 2.1090859763405536 Q 2.994981911399147 2.1032797019264913 2.995333806818181 2.091667153098366 Q 2.9988527610085223 1.9948959128639911 2.9988527610085223 1.8710287253639912 L 2.9988527610085223 1.6623547418767755 Q 2.9988527610085223 1.6078109519264911 2.998148970170454 1.5683986649946733 Q 2.998148970170454 1.5553785344904116 3.006066617098721 1.548516573819247 Q 3.013984264026988 1.5416546131480824 3.02278164950284 1.5416546131480824 Q 3.0424877929687493 1.5416546131480824 3.048821910511363 1.560305070356889 Q 3.0551560280539767 1.578955527565696 3.066768576882102 1.610450167569247 Q 3.0783811257102265 1.641944807572798 3.092808837890624 1.6804773559570312 Q 3.107236550071022 1.719009904341264 3.1237756347656243 1.7621170931729402 Q 3.1403147194602266 1.8052242820046163 3.156853804154829 1.8479795754172583 Q 3.173392888849431 1.8907348688299004 3.188876287286931 1.9308509465997867 Q 3.204359685724431 1.970967024369673 3.2170279208096586 2.0036932983398437 Q 3.2296961558948856 2.036419572310014 3.238493541370738 2.059644669966264 Q 3.238845436789772 2.060700356223366 3.239197332208806 2.0614041470614346 Q 3.2363821688565335 1.9924326449307526 3.2346226917613627 1.9111448031338776 Q 3.2328632146661924 1.8122621903852982 3.231631580699573 1.7629968317205253 Q 3.230399946732954 1.7137314730557527 3.2291683127663346 1.6632344804243606 Q 3.2279366787997152 1.6127374877929685 3.226177201704545 1.5631202337091619 Q 3.226177201704545 1.551859580300071 3.2323353715376415 1.5464052013050424 Q 3.238493541370738 1.540950822310014 3.245883345170454 1.540950822310014 Q 3.2532731489701696 1.540950822310014 3.2590794233842324 1.5464052013050424 Q 3.2648856977982947 1.551859580300071 3.2648856977982947 1.5631202337091619 Z M 3.4844684392755676 1.5441178810813208 Q 3.492913929332386 1.5441178810813208 3.4999518377130676 1.5511557894620027 Q 3.5069897460937494 1.5581936978426845 3.5110365434126414 1.5805390569513493 Q 3.5150833407315334 1.602884416060014 3.5233528830788345 1.6444080755060368 Q 3.5316224254261357 1.6859317349520595 3.5418273925781243 1.7330857211026276 Q 3.552032359730113 1.780239707253196 3.5632930131392038 1.8303848044655537 Q 3.5745536665482947 1.8805299016779118 3.5858143199573855 1.9276838878284799 Q 3.6129102672230107 2.0381790494051844 3.6280417702414764 2.089203885165128 Q 3.6315607244318175 2.102224015669389 3.626106345436789 2.1099657148881388 Q 3.6206519664417605 2.117707414106889 3.613965953480113 2.117707414106889 Q 3.607279940518465 2.117707414106889 3.601825561523437 2.113836564497514 Q 3.5963711825284084 2.1099657148881388 3.5921484374999992 2.090963362260298 Q 3.58792569247159 2.071961009632457 3.5784245161576695 2.0293816639293323 Q 3.5689233398437494 1.9868023182262071 3.5580145818536923 1.9378888549804685 Q 3.5576626864346585 1.935777482466264 3.5573107910156243 1.9340180053710936 Q 3.533381902521306 1.9329623191139913 3.489746870561079 1.9329623191139913 Q 3.4383701393821013 1.9329623191139913 3.4112741921164766 1.9343699007901276 Q 3.4109222966974424 1.9364812733043322 3.4105704012784086 1.9385926458185367 Q 3.3891047807173287 2.0420498990145592 3.37889981356534 2.098705061479048 Q 3.3753808593749994 2.1166517278497867 3.360249356356533 2.1166517278497867 Q 3.3444140624999994 2.1166517278497867 3.3408951083096583 2.1011683294122867 Q 3.339839422052556 2.0965936889648433 3.343006480823863 2.086740617231889 Q 3.3461735395951697 2.0768875454989346 3.3523317094282663 2.052782709295099 Q 3.358489879261363 2.028677873091264 3.3657037353515618 1.9975351285067469 Q 3.3729175914417606 1.96639238392223 3.3810111860795447 1.9294433649236504 Q 3.3891047807173287 1.892494345925071 3.397550270774147 1.8534339544122869 Q 3.4059957608309652 1.8143735628995026 3.4144412508877835 1.7747853282581674 Q 3.4228867409446018 1.7351970936168322 3.4306284401633516 1.6982480746182527 Q 3.4383701393821013 1.6612990556196732 3.4452321000532664 1.6289246770685368 Q 3.452094060724431 1.5965502985174003 3.45631680575284 1.5775479458895596 Q 3.463002818714488 1.5441178810813208 3.4844684392755676 1.5441178810813208 Z M 3.417960205078124 1.9016436268199572 Q 3.444704256924715 1.9030512084960935 3.490098765980113 1.9030512084960935 Q 3.527751575816761 1.9030512084960935 3.5502728826349426 1.9019955222389913 Q 3.5428830788352266 1.869973039106889 3.5354932750355106 1.8361910788796163 Q 3.5238807262073855 1.7837586614435368 3.513323863636363 1.734493302778764 Q 3.4957290926846585 1.6539092518199572 3.483060857599431 1.5930313443270596 Q 3.474967262961647 1.63349931751598 3.4598357599431813 1.70317461048473 Q 3.440129616477272 1.79607500110973 3.4299246493252835 1.8446365689364344 Q 3.423942427201704 1.873843888716264 3.417960205078124 1.9016436268199572 Z M 3.7276281738281245 1.5427102994051844 Q 3.749093794389204 1.5427102994051844 3.749093794389204 1.5733252008611505 Q 3.749093794389204 1.6148488603071731 3.748565951260653 1.660771212491122 Q 3.7480381081321017 1.7066935646750707 3.7476862127130675 1.7439944790926845 Q 3.7473343172940337 1.7812953935102982 3.7469824218749994 1.8309126475941049 Q 3.7462786310369314 1.9340180053710936 3.745574840198863 2.0839254538796164 Q 3.815602028586647 2.0853330355557524 3.879998890269886 2.078998918013139 Q 3.8926671253551133 2.0775913363370027 3.899705033735795 2.08427734929865 Q 3.9067429421164768 2.090963362260298 3.9067429421164768 2.098353166060014 Q 3.9067429421164768 2.10574296985973 3.900408824573863 2.111197348854758 Q 3.8940747070312494 2.1166517278497867 3.881758367365056 2.1159479370117187 Q 3.84164228959517 2.112780878240412 3.795368041992187 2.114540355335582 Q 3.749093794389204 2.1162998324307525 3.7395926180752834 2.117707414106889 Q 3.7300914417613633 2.1191149957830255 3.725692749023437 2.11823525723544 Q 3.721294056285511 2.1173555186878548 3.7177751020951697 2.114540355335582 Q 3.71003340287642 2.1085581332120027 3.710737193714488 2.0969455843838776 Q 3.714959938742897 2.0146020563299003 3.714959938742897 1.881761535644531 Q 3.714959938742897 1.7489210149591616 3.71478399103338 1.7174263749556107 Q 3.7146080433238633 1.6859317349520595 3.713904252485795 1.6595395785245026 Q 3.7124966708096587 1.607107161088423 3.7079220303622153 1.5652316062233664 Q 3.706866344105113 1.5539709528142756 3.7132004616477268 1.54834062610973 Q 3.7195345791903405 1.5427102994051844 3.7276281738281245 1.5427102994051844 Z" fill="#7b3a31" fill-rule="nonzero"></path></g><g clip-path="url(&quot;#SvgjsClipPath1002&quot;)"><g clip-path="url(&quot;#SvgjsClipPath1000&quot;)"><path d=" M -2.248252778170482 -0.06975073717801689 C -2.2958745133647454 -0.057330231627629326 -2.336780548352859 -0.026838593998692505 -2.3622867626496324 0.015250973037414517 C -2.388166126930708 0.05807693650441853 -2.396022475789385 0.10941225712892519 -2.3841357937965544 0.1580179299837582 L -2.3841357937965544 0.15981374076295607 C -2.372003233872698 0.20772738677921837 -2.3414582027810598 0.24892015758237845 -2.2991340835811247 0.2744463288351771 C -2.2563889265195916 0.3005478400332659 -2.2049621302074693 0.308418188315834 -2.1563671266347795 0.29629535998210077 L -2.1563671266347795 0.29629535998210077 C -2.1080021937608224 0.28428494725643383 -2.0663583609359284 0.2536170083543824 -2.0405373313764255 0.21099434797013578 C -2.0146754181694684 0.16827225855432873 -2.0068176791335395 0.1170354944296482 -2.018688300229504 0.06852669282032661 L -2.018688300229504 0.0655336748549944 C -2.0310477408785315 0.018044909042353896 -2.061433036943314 -0.022755135143573538 -2.103390708648401 -0.048201007827624986 C -2.1461358657099305 -0.07430251902571651 -2.1975626620220527 -0.08217286730828369 -2.2461576655947426 -0.07005003897455046 Z" fill="#d9913f" transform="matrix(1,0,0,1,0,0)" fill-rule="evenodd"></path></g><g clip-path="url(&quot;#SvgjsClipPath1000&quot;)"><path d=" M -1.7175906929170957 0.4989226762350846 C -1.739148226270406 0.46087046221513306 -1.7503939411416791 0.4178478649553126 -1.7502145887392155 0.37411382708073515 C -1.7499486308492074 0.3074574058639408 -1.7232543817267285 0.2436280117928582 -1.675987743198977 0.19662786173653818 C -1.6524620515387043 0.17337484052256386 -1.6245985072651372 0.15496863061922267 -1.5939790509488814 0.14245423656402803 L -1.5939790509488814 0.14245423656402895 C -1.6124113867064616 0.12360635953717469 -1.6339837718887862 0.10811070257522398 -1.6577303336104545 0.09666106169444832 C -1.7223729942373176 0.06494837022663114 -1.8001095198787254 0.07875205234987168 -1.849882086984779 0.13078146649923542 L -2.0294631649047057 0.3043765084884967 C -2.0567124871669993 0.33113010042462215 -2.090598636684482 0.35013940381247743 -2.1276341541675987 0.3594480390506085 C -2.1647088785237445 0.36852040703328626 -2.2035163406197387 0.3676947163503929 -2.240171629664082 0.35705362467834345 L -2.479613066890653 0.28791490967916944 C -2.5479044204580004 0.265349888980533 -2.6229478126089814 0.2895574348356855 -2.665180180741248 0.34777526898581224 C -2.680862194030712 0.36895815348203376 -2.6926210649177524 0.39278000398595025 -2.6998991891391 0.4181111911711179 C -2.7070967801721624 0.44358685998430136 -2.7097313150674323 0.47013486546742 -2.7076810358489607 0.4965282618628176 C -2.70284713167084 0.5684674204002578 -2.651999307661046 0.6290005442214406 -2.581974281305007 0.6461791601294238 L -2.342532844078443 0.715317875128596 C -2.3057823150862964 0.7257640654331327 -2.272369730668084 0.7455641154587379 -2.2455590620016808 0.7727838200629729 C -2.2191718485001006 0.8003556844200931 -2.200580107718094 0.8344405425204352 -2.191684738625704 0.871553412918933 L -2.131824379319063 1.1142871699073664 C -2.1172074316177816 1.184631900781441 -2.05873051623748 1.237418515907346 -1.9872616115935218 1.2447827531958466 C -1.961049555485099 1.2479913111928844 -1.9344713847754889 1.2463682167984047 -1.9088445409018222 1.2399939244513156 C -1.8832420879958347 1.2336321222834052 -1.8590055654427715 1.222680053514656 -1.837311411530381 1.2076693304257273 C -1.7961753468551676 1.1799743562056435 -1.769685599397543 1.1352385586319729 -1.7651796785658822 1.0858534992367102 C -1.767675080079612 1.0804136518117613 -1.7704729373597794 1.0751177076742988 -1.7735601288688119 1.069990504020451 C -1.7902180108179158 1.0412100729317308 -1.8143035730698691 1.0174346252152098 -1.8432974474610493 1.0011510908178123 L -2.0782493577396157 0.8655673769882676 C -2.164342603156775 0.8199268468804269 -2.210961073880279 0.7237838189467539 -2.193480549404904 0.6279217505408968 C -2.1881819310609814 0.5939587673536513 -2.176611646771022 0.5612777889206104 -2.159360144600117 0.5315465720572037 C -2.1421702189596905 0.501754428365467 -2.1197654599824376 0.4752945093923331 -2.0932144475662824 0.4534288031620357 C -2.0187609270370523 0.3907119910788545 -1.91234060522273 0.3832141956782993 -1.8298288666170532 0.43487209177697694 Z" fill="#d9913f" transform="matrix(1,0,0,1,0,0)" fill-rule="evenodd"></path></g><g clip-path="url(&quot;#SvgjsClipPath1000&quot;)"><path d=" M -1.068405096236561 0.8676624895640017 C -1.083636531266081 0.8156790571727286 -1.083636531266081 0.7604173661996049 -1.068405096236561 0.7084339338083318 C -1.0480760189986653 0.6357202158502321 -0.9996044407151485 0.5741074541209651 -0.9337192877966161 0.5372333061913364 C -0.9234079152344126 0.5313281333211732 -0.9127083188033187 0.5261283294481179 -0.9016939955675614 0.5216696127716107 C -0.9119368945969526 0.5088481764140651 -0.9234707599368865 0.4971137221116976 -0.936113702168881 0.4866513025772248 C -0.996431207358079 0.43601697756471536 -1.0825312586160123 0.43009155268881716 -1.1492165813005295 0.47198551454709625 L -1.3835698879860343 0.6072699265801085 C -1.4189240162831673 0.6282057561480573 -1.459210251708046 0.639361944419562 -1.500297588633986 0.6395945206056949 C -1.5413849255599297 0.639361944419562 -1.5816711609848046 0.6282057561480573 -1.6170252892819412 0.6072699265801075 L -1.8516778977639752 0.47198551454709625 C -1.9182144803529937 0.4295039729636707 -2.004691103013113 0.4354553135680884 -2.0647807768956237 0.4866513025772239 C -2.087043212957825 0.5048613296908046 -2.1058058356082263 0.5269707985437119 -2.120151609254271 0.551899094221464 C -2.135044065896775 0.576751584397903 -2.1451927786939105 0.604153108950165 -2.150081788907589 0.6327105792854306 C -2.163928103842321 0.7103133627348971 -2.1260652586143256 0.7879745340971095 -2.0564003265926942 0.8248623326597524 L -1.8214484163141238 0.9607453482858299 C -1.7857152274443924 0.9809726426079883 -1.7559745554561408 1.010300249707514 -1.7352494989125598 1.0457470585012623 C -1.7152572010510667 1.081486150910819 -1.7049403770602052 1.1218249327150835 -1.705319319259241 1.1627740609457484 L -1.705319319259241 1.4321456778256383 C -1.7087598057438167 1.5111203641700763 -1.6601537118203453 1.5830573831768109 -1.585598600645952 1.6093323413732992 C -1.55868767561904 1.6193217188201392 -1.53019979262521 1.6243907371464446 -1.501494795820124 1.6242974311999585 C -1.47266333602788 1.624417709381828 -1.4440547662142031 1.6192438190963763 -1.4170916891977599 1.6090330395767665 C -1.355842533951928 1.5868592721566959 -1.311403054020463 1.5332570128579173 -1.3009625921428698 1.4689597987992231 C -1.3113419289898804 1.4341183922029457 -1.330274009226998 1.402427736153858 -1.3560341227049844 1.3767748454669957 L -1.573925830581163 1.154992214235885 C -1.6542686697263727 1.0792595584287015 -1.6761982769369828 0.9601611944064288 -1.628099455753672 0.8607785482437392 C -1.611877457040391 0.8253156984383347 -1.5892504804306686 0.7931508931231686 -1.561355155126765 0.7658998787427095 C -1.5338000705824777 0.7383414145877247 -1.5013104826557402 0.7162078828126343 -1.4655785802361407 0.7006520870984694 C -1.3652964495928754 0.6546326733532298 -1.2467598135596518 0.6788485336255946 -1.1725621214301256 0.7605124464051122 Z" fill="#93af68" transform="matrix(1,0,0,1,0,0)" fill-rule="evenodd"></path></g><g clip-path="url(&quot;#SvgjsClipPath1000&quot;)"><path d=" M -1.4982024760582535 0.16759558747281933 C -1.552934768567985 0.1676658432415356 -1.6054665727963335 0.1891512437439284 -1.6445610545629912 0.22745594677946307 C -1.683078170016704 0.2661661936691346 -1.7046148880416543 0.3186081020598902 -1.7044214138696359 0.3732159216911362 C -1.7047744091391972 0.4280308564640647 -1.6832256122732896 0.48071766480121525 -1.6445610545629912 0.5195745001958766 C -1.605905691494503 0.5579903072058245 -1.553598131217289 0.579516052175871 -1.4991003814478516 0.5794348595025176 C -1.4442918719632674 0.5797546336912155 -1.3916173350090297 0.5582108557958229 -1.352741802943114 0.5195745001958747 C -1.3143259959331632 0.48091913712738643 -1.292800250963117 0.4286115768501726 -1.2928814436364693 0.3741138270807361 C -1.2925284483669082 0.31929889230780484 -1.3140772452328193 0.26661208397065517 -1.352741802943114 0.227755248575993 C -1.3914219517329913 0.1893402808594996 -1.443687825483512 0.1677241478886062 -1.49820247605825 0.16759558747281933 Z" fill="#93af68" transform="matrix(1,0,0,1,0,0)" fill-rule="evenodd"></path></g><g clip-path="url(&quot;#SvgjsClipPath1000&quot;)"><path d=" M -0.8846337931651695 2.0277562529267277 L -0.8017271955254723 1.7284544563935176 C -0.7899633693943253 1.683150331391712 -0.7662993850664084 1.641815860949936 -0.7331870841193655 1.6087337377802329 C -0.6999746805372684 1.576169414784022 -0.658628647202582 1.5531190011999345 -0.6134663655060799 1.5419894371533265 L -0.31416456897287137 1.4638716682581585 C -0.22444012056394502 1.4445698691175481 -0.15772252039294665 1.3691183285605284 -0.14954858087960377 1.2777059508145012 C -0.14579938937401415 1.2444235664524892 -0.14823471725093196 1.210734864155121 -0.15673182399640284 1.178337754365475 C -0.16502691615646192 1.1460740516630017 -0.1792346545353256 1.1156288979940097 -0.1986340755110505 1.0885472154055125 C -0.25027346646121496 1.012899865900815 -0.3450660028116501 0.979564894677835 -0.4326880804000224 1.0062392213588789 L -0.7319898769332349 1.0840576884575142 C -0.7767571145448764 1.0963342854950844 -0.8240035603372671 1.0963342854950844 -0.8687707979489123 1.0840576884575142 C -0.9135687804750856 1.071522857945497 -0.9542534044000768 1.0473599087108558 -0.9866957057829946 1.014021068068742 L -1.204587413659173 0.7922384368376324 C -1.2661093712285834 0.7244489690301344 -1.3645202099934444 0.704451692680132 -1.4476204724441402 0.7428536404096533 C -1.4782351186128269 0.7563435767723179 -1.5061287213912746 0.7753112266616617 -1.529928466490772 0.7988230763613641 C -1.553804866836507 0.8222991140348451 -1.5732693644952458 0.8498738190513938 -1.5873944114251515 0.8802331650183969 C -1.6274870179415653 0.9629010173971209 -1.6090415655702708 1.0620453238928107 -1.541900538352101 1.124762732786031 L -1.3240088304759223 1.3465453640171399 C -1.2909704685076744 1.3796358497820553 -1.2674058468209415 1.4209772913377263 -1.255768020866352 1.4662660826304246 C -1.2442050998852767 1.5112246896806008 -1.2449286722756057 1.5584636300205055 -1.2578631334420807 1.603047003646102 L -1.3404704292852487 1.9023488001793143 C -1.3684654698163412 1.989541910700649 -1.3365869899784009 2.08481371736461 -1.2617540567970162 2.137600012254417 C -1.2348297244878321 2.1575336898628805 -1.2043572894960846 2.1721604586589187 -1.171963517837053 2.180699470955199 C -1.139879813361676 2.18977973995423 -1.1063890926452282 2.1928243509284524 -1.073193924981095 2.189678524851196 C -0.9816556691296496 2.182839409426279 -0.9052288746815269 2.117209416098609 -0.8846337931651695 2.0277562529267277 Z" fill="#fb427c" transform="matrix(1,0,0,1,0,0)" fill-rule="evenodd"></path></g><g clip-path="url(&quot;#SvgjsClipPath1000&quot;)"><path d=" M -0.7304933679505679 0.5542935085937291 C -0.7917414148523947 0.5370705666896902 -0.8573257618250452 0.5449320729770517 -0.9127681620392922 0.5761425397406535 C -0.968239131509204 0.6072563706075838 -1.0090522314875636 0.6591611573874512 -1.026203542925377 0.7204060056696615 C -1.0432598831747122 0.7816668672138071 -1.035406125329826 0.8471865730704847 -1.0043545117784554 0.9026807997583878 C -0.9732406809115224 0.9581517692283015 -0.9213358941316567 0.998964869206661 -0.8600910458494464 1.0161161806444763 C -0.7987505868872307 1.0334224252708415 -0.7330415846043643 1.0255588889320717 -0.6775169499641893 0.9942671494975499 C -0.6231145312114847 0.9636138108447962 -0.5828392482414619 0.9129206546798575 -0.5652787762642353 0.8529967015338742 L -0.5652787762642353 0.8497043817720092 C -0.5479025772801243 0.7885672190535383 -0.5557731391451681 0.7230151421501664 -0.5871278074111568 0.6677288894798166 C -0.6177324478347948 0.6130389521248086 -0.6685592868677692 0.57252791974546 -0.7286975571713681 0.5548921121867952 Z" fill="#fb427c" transform="matrix(1,0,0,1,0,0)" fill-rule="evenodd"></path></g></g></g><defs><clipPath id="SvgjsClipPath1002"><path d=" M -2.7106740538142913 -0.07573677310868043 h 2.5641184909000216 v 2.266013901552943 h -2.5641184909000216 Z"></path></clipPath><clipPath id="SvgjsClipPath1000"><path d=" M -2.7106740538142913 -0.07573677310868043 L -0.14655556291426963 -0.07573677310868043 L -0.14655556291426963 2.1902771284442624 L -2.7106740538142913 2.1902771284442624 Z"></path></clipPath></defs></svg>